<svg width="80" height="392" viewBox="0 0 80 392" fill="none" xmlns="http://www.w3.org/2000/svg">
<rect x="0.5" y="0.5" width="79" height="391" rx="4.5" stroke="#9747FF" stroke-dasharray="10 5"/>
<g clip-path="url(#clip0_150450_219983)">
<g clip-path="url(#clip1_150450_219983)">
<path fill-rule="evenodd" clip-rule="evenodd" d="M38.5145 17.2911C38.5896 17.0205 38.8359 16.8333 39.1167 16.8333H40.8833C41.164 16.8333 41.4103 17.0205 41.4855 17.2911L41.6985 18.058L42.4693 17.859C42.7412 17.7889 43.0265 17.9086 43.1668 18.1517L44.0502 19.6816C44.1905 19.9248 44.1516 20.2317 43.9549 20.432L43.3972 21L43.9549 21.568C44.1516 21.7683 44.1905 22.0752 44.0502 22.3184L43.1668 23.8483C43.0265 24.0914 42.7412 24.2111 42.4693 24.141L41.6985 23.942L41.4855 24.7089C41.4103 24.9795 41.164 25.1667 40.8833 25.1667H39.1167C38.8359 25.1667 38.5896 24.9795 38.5145 24.7089L38.3014 23.942L37.5308 24.141C37.2589 24.2111 36.9737 24.0914 36.8333 23.8483L35.95 22.3184C35.8096 22.0752 35.8486 21.7683 36.0453 21.568L36.6029 21L36.0453 20.432C35.8486 20.2317 35.8096 19.9248 35.95 19.6816L36.8333 18.1517C36.9737 17.9086 37.2589 17.7889 37.5308 17.859L38.3014 18.058L38.5145 17.2911ZM38.2467 23.7449L38.2467 23.7452L38.2467 23.7449ZM39.275 17.6667L39.0496 18.4781C38.9584 18.8064 38.6211 19.0012 38.2912 18.916L37.4758 18.7055L36.7508 19.9612L37.3409 20.5621C37.5796 20.8052 37.5796 21.1948 37.3409 21.4379L36.7508 22.0388L37.4758 23.2945L38.2912 23.084C38.6211 22.9988 38.9584 23.1936 39.0496 23.5219L39.275 24.3333H40.7249L40.9504 23.5218C41.0415 23.1935 41.3789 22.9988 41.7088 23.084L42.5243 23.2945L43.2493 22.0388L42.6592 21.4379C42.4205 21.1948 42.4205 20.8052 42.6592 20.5621L43.2493 19.9612L42.5243 18.7055L41.7088 18.916C41.3789 19.0012 41.0415 18.8065 40.9504 18.4782L40.7249 17.6667H39.275ZM40 20.1667C39.5397 20.1667 39.1666 20.5398 39.1666 21C39.1666 21.4602 39.5397 21.8333 40 21.8333C40.4602 21.8333 40.8333 21.4602 40.8333 21C40.8333 20.5398 40.4602 20.1667 40 20.1667ZM38.3333 21C38.3333 20.0795 39.0795 19.3333 40 19.3333C40.9204 19.3333 41.6666 20.0795 41.6666 21C41.6666 21.9205 40.9204 22.6667 40 22.6667C39.0795 22.6667 38.3333 21.9205 38.3333 21Z" fill="#4E5969"/>
</g>
</g>
<g clip-path="url(#clip2_150450_219983)">
<path fill-rule="evenodd" clip-rule="evenodd" d="M38.2173 43.5493C38.3075 43.2247 38.6031 43 38.94 43H41.0599C41.3968 43 41.6924 43.2247 41.7826 43.5493L42.0382 44.4696L42.9632 44.2308C43.2894 44.1466 43.6317 44.2903 43.8002 44.582L44.8602 46.418C45.0286 46.7097 44.9818 47.078 44.7458 47.3184L44.0766 48L44.7458 48.6816C44.9818 48.922 45.0286 49.2903 44.8602 49.582L43.8002 51.418C43.6317 51.7097 43.2894 51.8534 42.9632 51.7692L42.0382 51.5304L41.7826 52.4507C41.6924 52.7753 41.3968 53 41.0599 53H38.94C38.6031 53 38.3075 52.7753 38.2173 52.4507L37.9617 51.5304L37.0369 51.7692C36.7107 51.8534 36.3684 51.7097 36.1999 51.418L35.1399 49.582C34.9715 49.2903 35.0182 48.922 35.2543 48.6816L35.9235 48L35.2543 47.3184C35.0182 47.078 34.9715 46.7097 35.1399 46.418L36.1999 44.582C36.3684 44.2903 36.7107 44.1466 37.0369 44.2308L37.9617 44.4696L38.2173 43.5493ZM37.896 51.2939L37.8961 51.2942L37.896 51.2939ZM39.13 44L38.8595 44.9737C38.7501 45.3677 38.3453 45.6014 37.9494 45.4992L36.9709 45.2466L36.101 46.7534L36.809 47.4745C37.0955 47.7663 37.0955 48.2337 36.809 48.5255L36.101 49.2466L36.9709 50.7534L37.9494 50.5008C38.3453 50.3986 38.7501 50.6323 38.8595 51.0263L39.13 52H40.8699L41.1404 51.0262C41.2498 50.6323 41.6546 50.3985 42.0505 50.5007L43.0292 50.7534L43.8991 49.2466L43.1911 48.5255C42.9046 48.2337 42.9046 47.7663 43.1911 47.4745L43.8991 46.7534L43.0292 45.2466L42.0505 45.4993C41.6546 45.6015 41.2498 45.3677 41.1404 44.9738L40.8699 44H39.13ZM39.9999 47C39.4477 47 38.9999 47.4477 38.9999 48C38.9999 48.5523 39.4477 49 39.9999 49C40.5522 49 40.9999 48.5523 40.9999 48C40.9999 47.4477 40.5522 47 39.9999 47ZM37.9999 48C37.9999 46.8954 38.8954 46 39.9999 46C41.1045 46 41.9999 46.8954 41.9999 48C41.9999 49.1046 41.1045 50 39.9999 50C38.8954 50 37.9999 49.1046 37.9999 48Z" fill="#4E5969"/>
</g>
<g clip-path="url(#clip3_150450_219983)">
<path fill-rule="evenodd" clip-rule="evenodd" d="M37.9203 71.8075C38.0255 71.4288 38.3703 71.1667 38.7634 71.1667H41.2367C41.6297 71.1667 41.9746 71.4288 42.0798 71.8075L42.378 72.8812L43.4571 72.6026C43.8377 72.5044 44.2371 72.672 44.4336 73.0124L45.6703 75.1543C45.8668 75.4947 45.8122 75.9244 45.5369 76.2048L44.7561 77L45.5369 77.7952C45.8122 78.0756 45.8668 78.5053 45.6703 78.8457L44.4336 80.9876C44.2371 81.328 43.8377 81.4956 43.4571 81.3973L42.378 81.1188L42.0798 82.1925C41.9746 82.5712 41.6297 82.8333 41.2367 82.8333H38.7634C38.3703 82.8333 38.0255 82.5712 37.9203 82.1925L37.6221 81.1188L36.5432 81.3973C36.1626 81.4956 35.7632 81.328 35.5667 80.9876L34.33 78.8457C34.1335 78.5053 34.1881 78.0756 34.4634 77.7952L35.2442 77L34.4634 76.2048C34.1881 75.9244 34.1335 75.4947 34.33 75.1543L35.5667 73.0124C35.7632 72.672 36.1626 72.5044 36.5432 72.6026L37.6221 72.8812L37.9203 71.8075ZM37.5454 80.8429L37.5455 80.8433L37.5454 80.8429ZM38.9851 72.3333L38.6695 73.4694C38.5418 73.929 38.0696 74.2016 37.6077 74.0824L36.4662 73.7877L35.4512 75.5456L36.2773 76.387C36.6115 76.7273 36.6115 77.2727 36.2773 77.613L35.4512 78.4544L36.4662 80.2123L37.6077 79.9176C38.0696 79.7984 38.5418 80.071 38.6695 80.5306L38.9851 81.6667H41.015L41.3306 80.5306C41.4582 80.071 41.9305 79.7983 42.3924 79.9175L43.5341 80.2123L44.5491 78.4544L43.723 77.613C43.3888 77.2727 43.3888 76.7273 43.723 76.387L44.5491 75.5456L43.5341 73.7877L42.3924 74.0825C41.9305 74.2017 41.4582 73.929 41.3306 73.4694L41.015 72.3333H38.9851ZM40 75.8333C39.3557 75.8333 38.8334 76.3557 38.8334 77C38.8334 77.6443 39.3557 78.1667 40 78.1667C40.6444 78.1667 41.1667 77.6443 41.1667 77C41.1667 76.3557 40.6444 75.8333 40 75.8333ZM37.6667 77C37.6667 75.7113 38.7114 74.6667 40 74.6667C41.2887 74.6667 42.3334 75.7113 42.3334 77C42.3334 78.2887 41.2887 79.3333 40 79.3333C38.7114 79.3333 37.6667 78.2887 37.6667 77Z" fill="#4E5969"/>
</g>
<g clip-path="url(#clip4_150450_219983)">
<path fill-rule="evenodd" clip-rule="evenodd" d="M37.6232 102.066C37.7434 101.633 38.1375 101.333 38.5867 101.333H41.4133C41.8625 101.333 42.2566 101.633 42.3768 102.066L42.7177 103.293L43.951 102.974C44.3859 102.862 44.8424 103.054 45.067 103.443L46.4803 105.891C46.7049 106.28 46.6425 106.771 46.3278 107.091L45.4355 108L46.3278 108.909C46.6425 109.229 46.7049 109.72 46.4803 110.109L45.067 112.557C44.8424 112.946 44.3859 113.138 43.951 113.026L42.7177 112.707L42.3768 113.934C42.2566 114.367 41.8625 114.667 41.4133 114.667H38.5867C38.1375 114.667 37.7434 114.367 37.6232 113.934L37.2823 112.707L36.0493 113.026C35.6143 113.138 35.1579 112.946 34.9333 112.557L33.52 110.109C33.2954 109.72 33.3577 109.229 33.6725 108.909L34.5648 108L33.6725 107.091C33.3577 106.771 33.2954 106.28 33.52 105.891L34.9333 103.443C35.1579 103.054 35.6143 102.862 36.0493 102.974L37.2823 103.293L37.6232 102.066ZM37.1947 112.392L37.1948 112.392L37.1947 112.392ZM38.8401 102.667L38.4794 103.965C38.3335 104.49 37.7938 104.802 37.2659 104.666L35.9613 104.329L34.8014 106.338L35.7455 107.299C36.1274 107.688 36.1274 108.312 35.7455 108.701L34.8014 109.662L35.9613 111.671L37.2659 111.334C37.7938 111.198 38.3335 111.51 38.4794 112.035L38.8401 113.333H41.1599L41.5206 112.035C41.6665 111.51 42.2063 111.198 42.7341 111.334L44.039 111.671L45.1989 109.662L44.2548 108.701C43.8729 108.312 43.8729 107.688 44.2548 107.299L45.1989 106.338L44.039 104.329L42.7341 104.666C42.2063 104.802 41.6665 104.49 41.5206 103.965L41.1599 102.667H38.8401ZM40 106.667C39.2636 106.667 38.6667 107.264 38.6667 108C38.6667 108.736 39.2636 109.333 40 109.333C40.7364 109.333 41.3333 108.736 41.3333 108C41.3333 107.264 40.7364 106.667 40 106.667ZM37.3333 108C37.3333 106.527 38.5272 105.333 40 105.333C41.4728 105.333 42.6667 106.527 42.6667 108C42.6667 109.473 41.4728 110.667 40 110.667C38.5272 110.667 37.3333 109.473 37.3333 108Z" fill="#4E5969"/>
</g>
<g clip-path="url(#clip5_150450_219983)">
<path fill-rule="evenodd" clip-rule="evenodd" d="M37.326 134.324C37.4613 133.837 37.9046 133.5 38.41 133.5H41.5899C42.0953 133.5 42.5386 133.837 42.6739 134.324L43.0574 135.704L44.4448 135.346C44.9341 135.22 45.4477 135.435 45.7003 135.873L47.2903 138.627C47.543 139.065 47.4728 139.617 47.1188 139.978L46.1149 141L47.1188 142.022C47.4728 142.383 47.543 142.935 47.2903 143.373L45.7003 146.127C45.4477 146.565 44.9341 146.78 44.4448 146.654L43.0574 146.296L42.6739 147.676C42.5386 148.163 42.0953 148.5 41.5899 148.5H38.41C37.9046 148.5 37.4613 148.163 37.326 147.676L36.9426 146.296L35.5554 146.654C35.0661 146.78 34.5526 146.565 34.2999 146.127L32.7099 143.373C32.4573 142.935 32.5274 142.383 32.8815 142.022L33.8853 141L32.8815 139.978C32.5274 139.617 32.4573 139.065 32.71 138.627L34.2999 135.873C34.5526 135.435 35.0661 135.22 35.5554 135.346L36.9426 135.704L37.326 134.324ZM36.844 145.941L36.8442 145.941L36.844 145.941ZM38.695 135L38.2893 136.461C38.1252 137.052 37.518 137.402 36.9241 137.249L35.4564 136.87L34.1515 139.13L35.2136 140.212C35.6433 140.649 35.6433 141.351 35.2136 141.788L34.1515 142.87L35.4564 145.13L36.9241 144.751C37.518 144.598 38.1252 144.948 38.2893 145.539L38.695 147H41.3049L41.7107 145.539C41.8748 144.948 42.482 144.598 43.0758 144.751L44.5438 145.13L45.8487 142.87L44.7866 141.788C44.357 141.351 44.357 140.649 44.7866 140.212L45.8487 139.13L44.5438 136.87L43.0758 137.249C42.482 137.402 41.8748 137.052 41.7107 136.461L41.3049 135H38.695ZM40 139.5C39.1715 139.5 38.5 140.172 38.5 141C38.5 141.828 39.1715 142.5 40 142.5C40.8284 142.5 41.5 141.828 41.5 141C41.5 140.172 40.8284 139.5 40 139.5ZM37 141C37 139.343 38.3431 138 40 138C41.6568 138 43 139.343 43 141C43 142.657 41.6568 144 40 144C38.3431 144 37 142.657 37 141Z" fill="#4E5969"/>
</g>
<g clip-path="url(#clip6_150450_219983)">
<path fill-rule="evenodd" clip-rule="evenodd" d="M37.0289 168.582C37.1792 168.041 37.6718 167.667 38.2333 167.667H41.7666C42.3281 167.667 42.8207 168.041 42.971 168.582L43.3971 170.116L44.9387 169.718C45.4824 169.578 46.0529 169.817 46.3337 170.303L48.1003 173.363C48.3811 173.85 48.3031 174.463 47.9097 174.864L46.7943 176L47.9097 177.136C48.3031 177.537 48.3811 178.15 48.1003 178.637L46.3337 181.697C46.0529 182.183 45.4824 182.422 44.9387 182.282L43.3971 181.884L42.971 183.418C42.8207 183.959 42.3281 184.333 41.7666 184.333H38.2333C37.6718 184.333 37.1792 183.959 37.0289 183.418L36.6028 181.884L35.0615 182.282C34.5179 182.422 33.9473 182.183 33.6665 181.697L31.8999 178.637C31.6192 178.15 31.6971 177.537 32.0905 177.136L33.2059 176L32.0905 174.864C31.6971 174.463 31.6192 173.85 31.8999 173.363L33.6665 170.303C33.9473 169.817 34.5179 169.578 35.0615 169.718L36.6028 170.116L37.0289 168.582ZM36.4933 181.49L36.4935 181.49L36.4933 181.49ZM38.55 169.333L38.0992 170.956C37.9168 171.613 37.2421 172.002 36.5823 171.832L34.9516 171.411L33.5016 173.922L34.6818 175.124C35.1592 175.61 35.1592 176.39 34.6818 176.876L33.5016 178.078L34.9516 180.589L36.5823 180.168C37.2422 179.998 37.9168 180.387 38.0992 181.044L38.55 182.667H41.4499L41.9007 181.044C42.0831 180.387 42.7578 179.998 43.4176 180.168L45.0487 180.589L46.4986 178.078L45.3185 176.876C44.841 176.39 44.841 175.61 45.3185 175.124L46.4986 173.922L45.0486 171.411L43.4176 171.832C42.7578 172.002 42.0831 171.613 41.9007 170.956L41.4499 169.333H38.55ZM39.9999 174.333C39.0795 174.333 38.3333 175.08 38.3333 176C38.3333 176.92 39.0795 177.667 39.9999 177.667C40.9204 177.667 41.6666 176.92 41.6666 176C41.6666 175.08 40.9204 174.333 39.9999 174.333ZM36.6666 176C36.6666 174.159 38.159 172.667 39.9999 172.667C41.8409 172.667 43.3333 174.159 43.3333 176C43.3333 177.841 41.8409 179.333 39.9999 179.333C38.159 179.333 36.6666 177.841 36.6666 176Z" fill="#4E5969"/>
</g>
<g clip-path="url(#clip7_150450_219983)">
<path fill-rule="evenodd" clip-rule="evenodd" d="M36.7319 204.84C36.8972 204.245 37.4391 203.833 38.0567 203.833H41.9433C42.561 203.833 43.1028 204.245 43.2682 204.84L43.7369 206.528L45.4326 206.09C46.0307 205.935 46.6583 206.199 46.9671 206.734L48.9104 210.1C49.2193 210.635 49.1335 211.31 48.7008 211.75L47.4739 213L48.7008 214.25C49.1335 214.69 49.2193 215.365 48.9104 215.9L46.9671 219.266C46.6583 219.801 46.0307 220.065 45.4326 219.91L43.7369 219.472L43.2682 221.16C43.1029 221.755 42.561 222.167 41.9433 222.167H38.0567C37.4391 222.167 36.8972 221.755 36.7319 221.16L36.2632 219.472L34.5678 219.91C33.9697 220.065 33.3421 219.801 33.0333 219.266L31.09 215.9C30.7812 215.365 30.8669 214.69 31.2997 214.25L32.5266 213L31.2997 211.75C30.8669 211.31 30.7812 210.635 31.09 210.1L33.0333 206.734C33.3421 206.199 33.9697 205.935 34.5678 206.09L36.2632 206.528L36.7319 204.84ZM36.1428 219.039L36.1429 219.039L36.1428 219.039ZM38.4051 205.667L37.9092 207.452C37.7086 208.174 36.9665 208.603 36.2407 208.415L34.4468 207.952L32.8519 210.715L34.15 212.037C34.6752 212.572 34.6752 213.428 34.15 213.963L32.8519 215.285L34.4468 218.048L36.2407 217.585C36.9665 217.397 37.7086 217.826 37.9092 218.548L38.4051 220.333H41.595L42.0909 218.548C42.2915 217.826 43.0336 217.397 43.7594 217.585L45.5536 218.048L47.1485 215.285L45.8504 213.963C45.3252 213.428 45.3252 212.572 45.8504 212.037L47.1485 210.715L45.5536 207.952L43.7594 208.415C43.0336 208.603 42.2915 208.174 42.0909 207.452L41.595 205.667H38.4051ZM40 211.167C38.9875 211.167 38.1667 211.987 38.1667 213C38.1667 214.013 38.9875 214.833 40 214.833C41.0126 214.833 41.8334 214.013 41.8334 213C41.8334 211.987 41.0126 211.167 40 211.167ZM36.3334 213C36.3334 210.975 37.975 209.333 40 209.333C42.0251 209.333 43.6667 210.975 43.6667 213C43.6667 215.025 42.0251 216.667 40 216.667C37.975 216.667 36.3334 215.025 36.3334 213Z" fill="#4E5969"/>
</g>
<g clip-path="url(#clip8_150450_219983)">
<path fill-rule="evenodd" clip-rule="evenodd" d="M36.4348 243.099C36.6151 242.449 37.2062 242 37.88 242H42.12C42.7938 242 43.3849 242.449 43.5652 243.099L44.0766 244.939L45.9265 244.462C46.5789 244.293 47.2636 244.581 47.6005 245.164L49.7204 248.836C50.0573 249.419 49.9638 250.156 49.4917 250.637L48.1533 252L49.4917 253.363C49.9638 253.844 50.0573 254.581 49.7204 255.164L47.6005 258.836C47.2636 259.419 46.5789 259.707 45.9265 259.538L44.0766 259.061L43.5652 260.901C43.3849 261.551 42.7938 262 42.12 262H37.88C37.2062 262 36.6151 261.551 36.4348 260.901L35.9235 259.061L34.0739 259.538C33.4215 259.707 32.7368 259.419 32.3999 258.836L30.28 255.164C29.9431 254.581 30.0366 253.844 30.5087 253.363L31.8471 252L30.5087 250.637C30.0366 250.156 29.9431 249.419 30.28 248.836L32.3999 245.164C32.7368 244.581 33.4215 244.293 34.0739 244.462L35.9235 244.939L36.4348 243.099ZM35.7921 258.588L35.7923 258.588L35.7921 258.588ZM38.2601 244L37.7191 245.947C37.5003 246.735 36.6906 247.203 35.8989 246.998L33.942 246.493L32.202 249.507L33.6182 250.949C34.1911 251.533 34.1911 252.467 33.6182 253.051L32.202 254.493L33.942 257.507L35.8989 257.002C36.6907 256.797 37.5003 257.265 37.7191 258.053L38.2601 260H41.7399L42.2809 258.052C42.4998 257.265 43.3094 256.797 44.1011 257.001L46.0585 257.507L47.7984 254.493L46.3822 253.051C45.8093 252.467 45.8093 251.533 46.3822 250.949L47.7984 249.507L46.0585 246.493L44.1011 246.999C43.3094 247.203 42.4998 246.735 42.2809 245.948L41.7399 244H38.2601ZM40 250C38.8954 250 38 250.895 38 252C38 253.105 38.8954 254 40 254C41.1046 254 42 253.105 42 252C42 250.895 41.1046 250 40 250ZM36 252C36 249.791 37.7909 248 40 248C42.2091 248 44 249.791 44 252C44 254.209 42.2091 256 40 256C37.7909 256 36 254.209 36 252Z" fill="#4E5969"/>
</g>
<g clip-path="url(#clip9_150450_219983)">
<path fill-rule="evenodd" clip-rule="evenodd" d="M35.2464 284.131C35.4868 283.266 36.275 282.667 37.1734 282.667H42.8266C43.725 282.667 44.5132 283.266 44.7536 284.131L45.4354 286.586L47.902 285.949C48.7719 285.724 49.6848 286.107 50.134 286.885L52.9606 291.781C53.4098 292.559 53.2851 293.541 52.6556 294.182L50.871 296L52.6556 297.818C53.2851 298.459 53.4098 299.441 52.9606 300.219L50.134 305.115C49.6848 305.893 48.7719 306.276 47.902 306.051L45.4354 305.414L44.7536 307.869C44.5132 308.734 43.725 309.333 42.8266 309.333H37.1734C36.275 309.333 35.4868 308.734 35.2464 307.869L34.5646 305.414L32.0986 306.051C31.2287 306.276 30.3158 305.893 29.8666 305.115L27.04 300.219C26.5908 299.441 26.7155 298.459 27.3449 297.818L29.1295 296L27.3449 294.182C26.7155 293.541 26.5908 292.559 27.04 291.781L29.8666 286.885C30.3158 286.107 31.2287 285.724 32.0986 285.949L34.5646 286.586L35.2464 284.131ZM34.3894 304.784L34.3897 304.785L34.3894 304.784ZM37.6801 285.333L36.9588 287.93C36.667 288.981 35.5875 289.604 34.5318 289.331L31.9226 288.658L29.6027 292.676L31.4909 294.599C32.2548 295.377 32.2548 296.623 31.4909 297.401L29.6027 299.324L31.9226 303.342L34.5318 302.669C35.5875 302.396 36.667 303.019 36.9588 304.07L37.6801 306.667H42.3199L43.0412 304.07C43.333 303.019 44.4125 302.396 45.4682 302.669L48.0779 303.342L50.3978 299.324L48.5096 297.401C47.7458 296.623 47.7458 295.377 48.5096 294.599L50.3978 292.676L48.0779 288.658L45.4682 289.331C44.4125 289.604 43.333 288.981 43.0412 287.93L42.3199 285.333H37.6801ZM40 293.333C38.5272 293.333 37.3333 294.527 37.3333 296C37.3333 297.473 38.5272 298.667 40 298.667C41.4728 298.667 42.6667 297.473 42.6667 296C42.6667 294.527 41.4728 293.333 40 293.333ZM34.6667 296C34.6667 293.054 37.0545 290.667 40 290.667C42.9455 290.667 45.3333 293.054 45.3333 296C45.3333 298.946 42.9455 301.333 40 301.333C37.0545 301.333 34.6667 298.946 34.6667 296Z" fill="#4E5969"/>
</g>
<g clip-path="url(#clip10_150450_219983)">
<path fill-rule="evenodd" clip-rule="evenodd" d="M32.8695 334.197C33.2302 332.899 34.4125 332 35.7601 332H44.2399C45.5875 332 46.7698 332.899 47.1305 334.197L48.1531 337.879L51.853 336.923C53.1578 336.587 54.5272 337.161 55.201 338.328L59.4409 345.672C60.1147 346.839 59.9276 348.312 58.9834 349.274L56.3066 352L58.9834 354.726C59.9276 355.688 60.1147 357.161 59.4409 358.328L55.201 365.672C54.5272 366.839 53.1578 367.414 51.853 367.077L48.1531 366.121L47.1305 369.803C46.7698 371.101 45.5875 372 44.2399 372H35.7601C34.4125 372 33.2302 371.101 32.8695 369.803L31.847 366.122L28.1479 367.077C26.843 367.414 25.4737 366.839 24.7999 365.672L20.5599 358.328C19.8861 357.161 20.0732 355.688 21.0174 354.726L23.6943 352L21.0174 349.274C20.0732 348.312 19.8861 346.839 20.56 345.672L24.7999 338.328C25.4737 337.161 26.843 336.587 28.1479 336.923L31.847 337.878L32.8695 334.197ZM31.5842 365.176L31.5845 365.177L31.5842 365.176ZM36.5202 336L35.4382 339.895C35.0005 341.471 33.3813 342.406 31.7978 341.997L27.8839 340.986L24.4041 347.014L27.2364 349.898C28.3822 351.065 28.3822 352.935 27.2364 354.102L24.4041 356.986L27.8839 363.014L31.7978 362.003C33.3813 361.594 35.0005 362.529 35.4382 364.105L36.5202 368H43.4798L44.5618 364.105C44.9995 362.529 46.6188 361.594 48.2023 362.003L52.1169 363.014L55.5967 356.986L52.7645 354.102C51.6187 352.935 51.6187 351.065 52.7645 349.898L55.5967 347.014L52.1169 340.986L48.2023 341.997C46.6188 342.406 44.9995 341.471 44.5618 339.895L43.4798 336H36.5202ZM40 348C37.7909 348 36 349.791 36 352C36 354.209 37.7909 356 40 356C42.2091 356 44 354.209 44 352C44 349.791 42.2091 348 40 348ZM32 352C32 347.582 35.5817 344 40 344C44.4183 344 48 347.582 48 352C48 356.418 44.4183 360 40 360C35.5817 360 32 356.418 32 352Z" fill="#4E5969"/>
</g>
<defs>
<clipPath id="clip0_150450_219983">
<rect width="10" height="10" fill="white" transform="translate(35 16)"/>
</clipPath>
<clipPath id="clip1_150450_219983">
<rect width="10" height="10" fill="white" transform="translate(35 16)"/>
</clipPath>
<clipPath id="clip2_150450_219983">
<rect width="12" height="12" fill="white" transform="translate(34 42)"/>
</clipPath>
<clipPath id="clip3_150450_219983">
<rect width="14" height="14" fill="white" transform="translate(33 70)"/>
</clipPath>
<clipPath id="clip4_150450_219983">
<rect width="16" height="16" fill="white" transform="translate(32 100)"/>
</clipPath>
<clipPath id="clip5_150450_219983">
<rect width="18" height="18" fill="white" transform="translate(31 132)"/>
</clipPath>
<clipPath id="clip6_150450_219983">
<rect width="20" height="20" fill="white" transform="translate(30 166)"/>
</clipPath>
<clipPath id="clip7_150450_219983">
<rect width="22" height="22" fill="white" transform="translate(29 202)"/>
</clipPath>
<clipPath id="clip8_150450_219983">
<rect width="24" height="24" fill="white" transform="translate(28 240)"/>
</clipPath>
<clipPath id="clip9_150450_219983">
<rect width="32" height="32" fill="white" transform="translate(24 280)"/>
</clipPath>
<clipPath id="clip10_150450_219983">
<rect width="48" height="48" fill="white" transform="translate(16 328)"/>
</clipPath>
</defs>
</svg>
